<?xml version="1.0" encoding="iso-8859-1"?>
<!-- Generator: Adobe Illustrator 19.0.0, SVG Export Plug-In . SVG Version: 6.00 Build 0)  -->
<svg version="1.1" id="Layer_1" xmlns="http://www.w3.org/2000/svg" xmlns:xlink="http://www.w3.org/1999/xlink" x="0px" y="0px"
	 viewBox="0 0 495.443 495.443" style="enable-background:new 0 0 495.443 495.443;" xml:space="preserve">
<path style="fill:#3F4444;" d="M291.627,191.307c0,20.779-16.865,37.628-37.644,37.628h-12.54
	c-20.787,0-37.628-16.857-37.628-37.628L191.26,37.628C191.26,16.849,195.568,0,216.355,0h62.724
	c20.787,0,25.096,16.857,25.096,37.628L291.627,191.307z"/>
<g>
	<path style="fill:#2B3333;" d="M216.355,0h62.724c20.787,0,25.096,16.857,25.096,37.628l-12.54,153.679"/>
</g>
<path style="fill:#3F4444;" d="M203.815,304.136c0-20.779,16.865-37.628,37.628-37.628h12.556c20.787,0,37.628,16.857,37.628,37.628
	l12.54,153.679c0,20.779-4.309,37.628-25.08,37.628h-62.716c-20.787,0-25.096-16.857-25.096-37.628L203.815,304.136z"/>
<g>
	<path style="fill:#2B3333;" d="M279.087,495.443h-62.716c-20.787,0-25.096-16.857-25.096-37.628l12.54-153.679"/>
</g>
<path style="fill:#3F4444;" d="M191.307,203.815c20.771,0,37.628,16.865,37.628,37.636v12.548c0,20.787-16.864,37.628-37.628,37.628
	L37.628,304.175C16.841,304.175,0,299.867,0,279.087v-62.716c0-20.787,16.849-25.096,37.628-25.096L191.307,203.815z"/>
<g>
	<path style="fill:#2B3333;" d="M0,279.087v-62.716c0-20.787,16.849-25.096,37.628-25.096l153.679,12.54"/>
</g>
<path style="fill:#3F4444;" d="M304.136,291.627c-20.787,0-37.628-16.865-37.628-37.628v-12.556
	c0-20.787,16.849-37.628,37.628-37.628l153.679-12.54c20.771,0,37.628,4.309,37.628,25.08v62.724
	c0,20.787-16.864,25.096-37.628,25.096L304.136,291.627z"/>
<g>
	<path style="fill:#2B3333;" d="M495.443,216.355v62.724c0,20.787-16.864,25.096-37.628,25.096l-153.679-12.54"/>
</g>
<path style="fill:#3F4444;" d="M291.367,249.108c0,19.763-16.014,35.777-35.769,35.777h-15.092
	c-19.755,0-35.785-16.014-35.785-35.777l0,0c0-19.763,16.03-35.777,35.785-35.777h15.092
	C275.354,213.331,291.367,229.344,291.367,249.108L291.367,249.108z"/>
<g>
	<circle style="fill:#FFAA00;" cx="215.725" cy="247.721" r="8.365"/>
	<circle style="fill:#FFAA00;" cx="247.721" cy="247.721" r="8.365"/>
	<circle style="fill:#FFAA00;" cx="279.717" cy="247.721" r="8.365"/>
</g>
<g>
</g>
<g>
</g>
<g>
</g>
<g>
</g>
<g>
</g>
<g>
</g>
<g>
</g>
<g>
</g>
<g>
</g>
<g>
</g>
<g>
</g>
<g>
</g>
<g>
</g>
<g>
</g>
<g>
</g>
</svg>
